<svg xmlns="http://www.w3.org/2000/svg" xmlns:xlink="http://www.w3.org/1999/xlink" xmlns:lucid="lucid" width="844.67" height="640"><g transform="translate(-128.2 -140)" lucid:page-tab-id="0_0"><path d="M0 0h1870.4v1323.2H0z" fill="#fff"/><path d="M620 160h160v120H620z" stroke="#000" stroke-width="2" fill="#fff"/><use xlink:href="#a" transform="matrix(1,0,0,1,625,165) translate(22.574999999999996 48.775)"/><use xlink:href="#b" transform="matrix(1,0,0,1,625,165) translate(48.55 70.375)"/><path d="M200 160h160v120H200z" stroke="#000" stroke-width="2" fill="#fff"/><use xlink:href="#c" transform="matrix(1,0,0,1,205,165) translate(19.075000000000003 59.0875)"/><use xlink:href="#d" transform="matrix(1,0,0,1,205,165) translate(60.925000000000004 59.0875)"/><path d="M780 420h160v120H780z" stroke="#000" stroke-width="2" fill="#fff"/><use xlink:href="#e" transform="matrix(1,0,0,1,785,425) translate(48.55 59.0875)"/><path d="M861 418h-2v-68.53h2zm0-90.13h-2V221h-59.5v-2H861z"/><path d="M861 419h-2v-1.03h2zM798.5 224.64L784.24 220l14.26-4.64z"/><path d="M799.5 226l-18.5-6 18.5-6zm-12.03-6l10.03 3.26v-6.52z"/><use xlink:href="#f" transform="matrix(1,0,0,1,777.025,327.8666666666667) translate(0 14.4)"/><use xlink:href="#g" transform="matrix(1,0,0,1,777.025,327.8666666666667) translate(20 14.4)"/><use xlink:href="#h" transform="matrix(1,0,0,1,777.025,327.8666666666667) translate(63 14.4)"/><use xlink:href="#i" transform="matrix(1,0,0,1,777.025,327.8666666666667) translate(121.95 14.4)"/><path d="M480 640h160v120H480z" stroke="#000" stroke-width="2" fill="#fff"/><use xlink:href="#j" transform="matrix(1,0,0,1,485,645) translate(47.025 59.0875)"/><path d="M861 701H659.5v-2H859v-29.4h2zm0-74.6h-2V542h2z"/><path d="M861 542.03h-2V541h2zM658.5 704.64L644.24 700l14.26-4.64z"/><path d="M659.5 706l-18.5-6 18.5-6zm-12.03-6l10.03 3.26v-6.52z"/><use xlink:href="#k" transform="matrix(1,0,0,1,758.125,626.4) translate(0 14.4)"/><use xlink:href="#l" transform="matrix(1,0,0,1,758.125,626.4) translate(20 14.4)"/><use xlink:href="#m" transform="matrix(1,0,0,1,758.125,626.4) translate(70.95 14.4)"/><use xlink:href="#n" transform="matrix(1,0,0,1,758.125,626.4) translate(119.95 14.4)"/><use xlink:href="#o" transform="matrix(1,0,0,1,758.125,626.4) translate(139.95 14.4)"/><use xlink:href="#p" transform="matrix(1,0,0,1,758.125,626.4) translate(0 36)"/><use xlink:href="#q" transform="matrix(1,0,0,1,758.125,626.4) translate(24 36)"/><use xlink:href="#r" transform="matrix(1,0,0,1,758.125,626.4) translate(104.85000000000001 36)"/><use xlink:href="#s" transform="matrix(1,0,0,1,758.125,626.4) translate(125.80000000000001 36)"/><use xlink:href="#t" transform="matrix(1,0,0,1,758.125,626.4) translate(153.75 36)"/><path d="M281 459h280v179h-2V461H279v-39.32h2zm0-58.92h-2V299.5h2z"/><path d="M561 639h-2v-1.03h2zM284.64 298.5h-9.28l4.64-14.26z"/><path d="M286 299.5h-12l6-18.5zm-9.26-2h6.52L280 287.47z"/><g><use xlink:href="#u" transform="matrix(1,0,0,1,139.2,400.081199538639) translate(0 14.4)"/><use xlink:href="#v" transform="matrix(1,0,0,1,139.2,400.081199538639) translate(20 14.4)"/><use xlink:href="#w" transform="matrix(1,0,0,1,139.2,400.081199538639) translate(90.9 14.4)"/><use xlink:href="#x" transform="matrix(1,0,0,1,139.2,400.081199538639) translate(141.75 14.4)"/><use xlink:href="#h" transform="matrix(1,0,0,1,139.2,400.081199538639) translate(178.65 14.4)"/><use xlink:href="#i" transform="matrix(1,0,0,1,139.2,400.081199538639) translate(237.60000000000002 14.4)"/></g><path d="M362 220h238.5" stroke="#000" stroke-width="2" fill="none"/><path d="M362.03 221H361v-2h1.03z"/><path d="M615.76 220l-14.26 4.64v-9.28z" stroke="#000" stroke-width="2"/><g><use xlink:href="#y" transform="matrix(1,0,0,1,383.76666666666665,223.99999999999997) translate(0 14.4)"/><use xlink:href="#z" transform="matrix(1,0,0,1,383.76666666666665,223.99999999999997) translate(20 14.4)"/><use xlink:href="#A" transform="matrix(1,0,0,1,383.76666666666665,223.99999999999997) translate(64 14.4)"/><use xlink:href="#m" transform="matrix(1,0,0,1,383.76666666666665,223.99999999999997) translate(77.95 14.4)"/><use xlink:href="#B" transform="matrix(1,0,0,1,383.76666666666665,223.99999999999997) translate(126.95 14.4)"/><use xlink:href="#C" transform="matrix(1,0,0,1,383.76666666666665,223.99999999999997) translate(144.9 14.4)"/><use xlink:href="#D" transform="matrix(1,0,0,1,383.76666666666665,223.99999999999997) translate(0 36)"/><use xlink:href="#E" transform="matrix(1,0,0,1,383.76666666666665,223.99999999999997) translate(53.95 36)"/><use xlink:href="#F" transform="matrix(1,0,0,1,383.76666666666665,223.99999999999997) translate(0 57.6)"/><use xlink:href="#i" transform="matrix(1,0,0,1,383.76666666666665,223.99999999999997) translate(89.85000000000001 57.6)"/></g><defs><path d="M205 0l-28-72H64L36 0H1l101-248h38L239 0h-34zm-38-99l-47-123c-12 45-31 82-46 123h93" id="G"/><path d="M84 4C-5 8 30-112 23-190h32v120c0 31 7 50 39 49 72-2 45-101 50-169h31l1 190h-30c-1-10 1-25-2-33-11 22-28 36-60 37" id="H"/><path d="M59-47c-2 24 18 29 38 22v24C64 9 27 4 27-40v-127H5v-23h24l9-43h21v43h35v23H59v120" id="I"/><path d="M106-169C34-169 62-67 57 0H25v-261h32l-1 103c12-21 28-36 61-36 89 0 53 116 60 194h-32v-121c2-32-8-49-39-48" id="J"/><path d="M100-194c62-1 85 37 85 99 1 63-27 99-86 99S16-35 15-95c0-66 28-99 85-99zM99-20c44 1 53-31 53-75 0-43-8-75-51-75s-53 32-53 75 10 74 51 75" id="K"/><path d="M114-163C36-179 61-72 57 0H25l-1-190h30c1 12-1 29 2 39 6-27 23-49 58-41v29" id="L"/><path d="M24-231v-30h32v30H24zM24 0v-190h32V0H24" id="M"/><path d="M9 0v-24l116-142H16v-24h144v24L44-24h123V0H9" id="N"/><path d="M141-36C126-15 110 5 73 4 37 3 15-17 15-53c-1-64 63-63 125-63 3-35-9-54-41-54-24 1-41 7-42 31l-33-3c5-37 33-52 76-52 45 0 72 20 72 64v82c-1 20 7 32 28 27v20c-31 9-61-2-59-35zM48-53c0 20 12 33 32 33 41-3 63-29 60-74-43 2-92-5-92 41" id="O"/><path d="M117-194c89-4 53 116 60 194h-32v-121c0-31-8-49-39-48C34-167 62-67 57 0H25l-1-190h30c1 10-1 24 2 32 11-22 29-35 61-36" id="P"/><g id="a"><use transform="matrix(0.05,0,0,0.05,0,0)" xlink:href="#G"/><use transform="matrix(0.05,0,0,0.05,12,0)" xlink:href="#H"/><use transform="matrix(0.05,0,0,0.05,22,0)" xlink:href="#I"/><use transform="matrix(0.05,0,0,0.05,27,0)" xlink:href="#J"/><use transform="matrix(0.05,0,0,0.05,37,0)" xlink:href="#K"/><use transform="matrix(0.05,0,0,0.05,47,0)" xlink:href="#L"/><use transform="matrix(0.05,0,0,0.05,52.95,0)" xlink:href="#M"/><use transform="matrix(0.05,0,0,0.05,56.900000000000006,0)" xlink:href="#N"/><use transform="matrix(0.05,0,0,0.05,65.9,0)" xlink:href="#O"/><use transform="matrix(0.05,0,0,0.05,75.9,0)" xlink:href="#I"/><use transform="matrix(0.05,0,0,0.05,80.9,0)" xlink:href="#M"/><use transform="matrix(0.05,0,0,0.05,84.85000000000001,0)" xlink:href="#K"/><use transform="matrix(0.05,0,0,0.05,94.85000000000001,0)" xlink:href="#P"/></g><path d="M185-189c-5-48-123-54-124 2 14 75 158 14 163 119 3 78-121 87-175 55-17-10-28-26-33-46l33-7c5 56 141 63 141-1 0-78-155-14-162-118-5-82 145-84 179-34 5 7 8 16 11 25" id="Q"/><path d="M100-194c63 0 86 42 84 106H49c0 40 14 67 53 68 26 1 43-12 49-29l28 8c-11 28-37 45-77 45C44 4 14-33 15-96c1-61 26-98 85-98zm52 81c6-60-76-77-97-28-3 7-6 17-6 28h103" id="R"/><path d="M108 0H70L1-190h34L89-25l56-165h34" id="S"/><g id="b"><use transform="matrix(0.05,0,0,0.05,0,0)" xlink:href="#Q"/><use transform="matrix(0.05,0,0,0.05,12,0)" xlink:href="#R"/><use transform="matrix(0.05,0,0,0.05,22,0)" xlink:href="#L"/><use transform="matrix(0.05,0,0,0.05,27.950000000000003,0)" xlink:href="#S"/><use transform="matrix(0.05,0,0,0.05,36.95,0)" xlink:href="#R"/><use transform="matrix(0.05,0,0,0.05,46.95,0)" xlink:href="#L"/></g><path d="M127-220V0H93v-220H8v-28h204v28h-85" id="T"/><path d="M212-179c-10-28-35-45-73-45-59 0-87 40-87 99 0 60 29 101 89 101 43 0 62-24 78-52l27 14C228-24 195 4 139 4 59 4 22-46 18-125c-6-104 99-153 187-111 19 9 31 26 39 46" id="U"/><path d="M190 0L58-211 59 0H30v-248h39L202-35l-2-213h31V0h-41" id="V"/><g id="c"><use transform="matrix(0.05,0,0,0.05,0,0)" xlink:href="#T"/><use transform="matrix(0.05,0,0,0.05,10.950000000000001,0)" xlink:href="#U"/><use transform="matrix(0.05,0,0,0.05,23.900000000000002,0)" xlink:href="#V"/></g><path d="M160-131c35 5 61 23 61 61C221 17 115-2 30 0v-248c76 3 177-17 177 60 0 33-19 50-47 57zm-97-11c50-1 110 9 110-42 0-47-63-36-110-37v79zm0 115c55-2 124 14 124-45 0-56-70-42-124-44v89" id="W"/><path d="M96-169c-40 0-48 33-48 73s9 75 48 75c24 0 41-14 43-38l32 2c-6 37-31 61-74 61-59 0-76-41-82-99-10-93 101-131 147-64 4 7 5 14 7 22l-32 3c-4-21-16-35-41-35" id="X"/><path d="M143 0L79-87 56-68V0H24v-261h32v163l83-92h37l-77 82L181 0h-38" id="Y"/><path d="M85-194c31 0 48 13 60 33l-1-100h32l1 261h-30c-2-10 0-23-3-31C134-8 116 4 85 4 32 4 16-35 15-94c0-66 23-100 70-100zm9 24c-40 0-46 34-46 75 0 40 6 74 45 74 42 0 51-32 51-76 0-42-9-74-50-73" id="Z"/><g id="d"><use transform="matrix(0.05,0,0,0.05,0,0)" xlink:href="#W"/><use transform="matrix(0.05,0,0,0.05,12,0)" xlink:href="#O"/><use transform="matrix(0.05,0,0,0.05,22,0)" xlink:href="#X"/><use transform="matrix(0.05,0,0,0.05,31,0)" xlink:href="#Y"/><use transform="matrix(0.05,0,0,0.05,40,0)" xlink:href="#R"/><use transform="matrix(0.05,0,0,0.05,50,0)" xlink:href="#P"/><use transform="matrix(0.05,0,0,0.05,60,0)" xlink:href="#Z"/></g><path d="M30-248c118-7 216 8 213 122C240-48 200 0 122 0H30v-248zM63-27c89 8 146-16 146-99s-60-101-146-95v194" id="aa"/><g id="e"><use transform="matrix(0.05,0,0,0.05,0,0)" xlink:href="#aa"/><use transform="matrix(0.05,0,0,0.05,12.950000000000001,0)" xlink:href="#K"/><use transform="matrix(0.05,0,0,0.05,22.950000000000003,0)" xlink:href="#X"/><use transform="matrix(0.05,0,0,0.05,31.950000000000003,0)" xlink:href="#I"/><use transform="matrix(0.05,0,0,0.05,36.95,0)" xlink:href="#K"/><use transform="matrix(0.05,0,0,0.05,46.95,0)" xlink:href="#L"/></g><path d="M27 0v-27h64v-190l-56 39v-29l58-41h29v221h61V0H27" id="ab"/><path d="M33 0v-38h34V0H33" id="ac"/><g id="f"><use transform="matrix(0.05,0,0,0.05,0,0)" xlink:href="#ab"/><use transform="matrix(0.05,0,0,0.05,10,0)" xlink:href="#ac"/></g><path d="M143 4C61 4 22-44 18-125c-5-107 100-154 193-111 17 8 29 25 37 43l-32 9c-13-25-37-40-76-40-61 0-88 39-88 99 0 61 29 100 91 101 35 0 62-11 79-27v-45h-74v-28h105v86C228-13 192 4 143 4" id="ad"/><path d="M135-143c-3-34-86-38-87 0 15 53 115 12 119 90S17 21 10-45l28-5c4 36 97 45 98 0-10-56-113-15-118-90-4-57 82-63 122-42 12 7 21 19 24 35" id="ae"/><g id="g"><use transform="matrix(0.05,0,0,0.05,0,0)" xlink:href="#ad"/><use transform="matrix(0.05,0,0,0.05,14,0)" xlink:href="#R"/><use transform="matrix(0.05,0,0,0.05,24,0)" xlink:href="#I"/><use transform="matrix(0.05,0,0,0.05,29,0)" xlink:href="#ae"/></g><path d="M115-194c55 1 70 41 70 98S169 2 115 4C84 4 66-9 55-30l1 105H24l-1-265h31l2 30c10-21 28-34 59-34zm-8 174c40 0 45-34 45-75s-6-73-45-74c-42 0-51 32-51 76 0 43 10 73 51 73" id="af"/><path d="M24 0v-261h32V0H24" id="ag"/><g id="h"><use transform="matrix(0.05,0,0,0.05,0,0)" xlink:href="#H"/><use transform="matrix(0.05,0,0,0.05,10,0)" xlink:href="#af"/><use transform="matrix(0.05,0,0,0.05,20,0)" xlink:href="#ag"/><use transform="matrix(0.05,0,0,0.05,23.95,0)" xlink:href="#K"/><use transform="matrix(0.05,0,0,0.05,33.95,0)" xlink:href="#O"/><use transform="matrix(0.05,0,0,0.05,43.95,0)" xlink:href="#Z"/></g><g id="i"><use transform="matrix(0.05,0,0,0.05,0,0)" xlink:href="#I"/><use transform="matrix(0.05,0,0,0.05,5,0)" xlink:href="#K"/><use transform="matrix(0.05,0,0,0.05,15,0)" xlink:href="#Y"/><use transform="matrix(0.05,0,0,0.05,24,0)" xlink:href="#R"/><use transform="matrix(0.05,0,0,0.05,34,0)" xlink:href="#P"/></g><path d="M30-248c87 1 191-15 191 75 0 78-77 80-158 76V0H30v-248zm33 125c57 0 124 11 124-50 0-59-68-47-124-48v98" id="ah"/><g id="j"><use transform="matrix(0.05,0,0,0.05,0,0)" xlink:href="#ah"/><use transform="matrix(0.05,0,0,0.05,12,0)" xlink:href="#O"/><use transform="matrix(0.05,0,0,0.05,22,0)" xlink:href="#I"/><use transform="matrix(0.05,0,0,0.05,27,0)" xlink:href="#M"/><use transform="matrix(0.05,0,0,0.05,30.950000000000003,0)" xlink:href="#R"/><use transform="matrix(0.05,0,0,0.05,40.95,0)" xlink:href="#P"/><use transform="matrix(0.05,0,0,0.05,50.95,0)" xlink:href="#I"/></g><path d="M101-251c82-7 93 87 43 132L82-64C71-53 59-42 53-27h129V0H18c2-99 128-94 128-182 0-28-16-43-45-43s-46 15-49 41l-32-3c6-41 34-60 81-64" id="ai"/><g id="k"><use transform="matrix(0.05,0,0,0.05,0,0)" xlink:href="#ai"/><use transform="matrix(0.05,0,0,0.05,10,0)" xlink:href="#ac"/></g><g id="l"><use transform="matrix(0.05,0,0,0.05,0,0)" xlink:href="#ad"/><use transform="matrix(0.05,0,0,0.05,14,0)" xlink:href="#M"/><use transform="matrix(0.05,0,0,0.05,17.95,0)" xlink:href="#S"/><use transform="matrix(0.05,0,0,0.05,26.950000000000003,0)" xlink:href="#R"/><use transform="matrix(0.05,0,0,0.05,36.95,0)" xlink:href="#ae"/></g><g id="m"><use transform="matrix(0.05,0,0,0.05,0,0)" xlink:href="#I"/><use transform="matrix(0.05,0,0,0.05,5,0)" xlink:href="#K"/><use transform="matrix(0.05,0,0,0.05,15,0)" xlink:href="#Y"/><use transform="matrix(0.05,0,0,0.05,24,0)" xlink:href="#R"/><use transform="matrix(0.05,0,0,0.05,34,0)" xlink:href="#P"/></g><g id="n"><use transform="matrix(0.05,0,0,0.05,0,0)" xlink:href="#I"/><use transform="matrix(0.05,0,0,0.05,5,0)" xlink:href="#K"/></g><g id="o"><use transform="matrix(0.05,0,0,0.05,0,0)" xlink:href="#af"/><use transform="matrix(0.05,0,0,0.05,10,0)" xlink:href="#O"/><use transform="matrix(0.05,0,0,0.05,20,0)" xlink:href="#I"/><use transform="matrix(0.05,0,0,0.05,25,0)" xlink:href="#M"/><use transform="matrix(0.05,0,0,0.05,28.950000000000003,0)" xlink:href="#R"/><use transform="matrix(0.05,0,0,0.05,38.95,0)" xlink:href="#P"/><use transform="matrix(0.05,0,0,0.05,48.95,0)" xlink:href="#I"/></g><g id="p"><use transform="matrix(0.05,0,0,0.05,0,0)" xlink:href="#O"/><use transform="matrix(0.05,0,0,0.05,10,0)" xlink:href="#ae"/></g><path d="M140-251c81 0 123 46 123 126C263-53 228-8 163 1c7 30 30 48 69 40v23c-55 16-95-15-103-61C56-3 17-48 17-125c0-80 42-126 123-126zm0 227c63 0 89-41 89-101s-29-99-89-99c-61 0-89 39-89 99S79-25 140-24" id="aj"/><path d="M233-177c-1 41-23 64-60 70L243 0h-38l-65-103H63V0H30v-248c88 3 205-21 203 71zM63-129c60-2 137 13 137-47 0-61-80-42-137-45v92" id="ak"/><path d="M16-82v-28h88v28H16" id="al"/><g id="q"><use transform="matrix(0.05,0,0,0.05,0,0)" xlink:href="#aj"/><use transform="matrix(0.05,0,0,0.05,14,0)" xlink:href="#ak"/><use transform="matrix(0.05,0,0,0.05,26.950000000000003,0)" xlink:href="#al"/><use transform="matrix(0.05,0,0,0.05,32.900000000000006,0)" xlink:href="#U"/><use transform="matrix(0.05,0,0,0.05,45.85000000000001,0)" xlink:href="#K"/><use transform="matrix(0.05,0,0,0.05,55.85,0)" xlink:href="#Z"/><use transform="matrix(0.05,0,0,0.05,65.85000000000001,0)" xlink:href="#R"/></g><g id="r"><use transform="matrix(0.05,0,0,0.05,0,0)" xlink:href="#K"/><use transform="matrix(0.05,0,0,0.05,10,0)" xlink:href="#L"/></g><g id="s"><use transform="matrix(0.05,0,0,0.05,0,0)" xlink:href="#S"/><use transform="matrix(0.05,0,0,0.05,9,0)" xlink:href="#M"/><use transform="matrix(0.05,0,0,0.05,12.949999999999998,0)" xlink:href="#O"/></g><g id="t"><use transform="matrix(0.05,0,0,0.05,0,0)" xlink:href="#af"/><use transform="matrix(0.05,0,0,0.05,10,0)" xlink:href="#J"/><use transform="matrix(0.05,0,0,0.05,20,0)" xlink:href="#K"/><use transform="matrix(0.05,0,0,0.05,30,0)" xlink:href="#P"/><use transform="matrix(0.05,0,0,0.05,40,0)" xlink:href="#R"/></g><path d="M126-127c33 6 58 20 58 59 0 88-139 92-164 29-3-8-5-16-6-25l32-3c6 27 21 44 54 44 32 0 52-15 52-46 0-38-36-46-79-43v-28c39 1 72-4 72-42 0-27-17-43-46-43-28 0-47 15-49 41l-32-3c6-42 35-63 81-64 48-1 79 21 79 65 0 36-21 52-52 59" id="am"/><g id="u"><use transform="matrix(0.05,0,0,0.05,0,0)" xlink:href="#am"/><use transform="matrix(0.05,0,0,0.05,10,0)" xlink:href="#ac"/></g><path d="M232-93c-1 65-40 97-104 97C67 4 28-28 28-90v-158h33c8 89-33 224 67 224 102 0 64-133 71-224h33v155" id="an"/><g id="v"><use transform="matrix(0.05,0,0,0.05,0,0)" xlink:href="#an"/><use transform="matrix(0.05,0,0,0.05,12.950000000000001,0)" xlink:href="#af"/><use transform="matrix(0.05,0,0,0.05,22.950000000000003,0)" xlink:href="#ag"/><use transform="matrix(0.05,0,0,0.05,26.900000000000002,0)" xlink:href="#K"/><use transform="matrix(0.05,0,0,0.05,36.900000000000006,0)" xlink:href="#O"/><use transform="matrix(0.05,0,0,0.05,46.900000000000006,0)" xlink:href="#Z"/><use transform="matrix(0.05,0,0,0.05,56.900000000000006,0)" xlink:href="#ae"/></g><g id="w"><use transform="matrix(0.05,0,0,0.05,0,0)" xlink:href="#T"/><use transform="matrix(0.05,0,0,0.05,10.950000000000001,0)" xlink:href="#U"/><use transform="matrix(0.05,0,0,0.05,23.900000000000002,0)" xlink:href="#V"/><use transform="matrix(0.05,0,0,0.05,36.85,0)" xlink:href="#ae"/></g><path d="M206 0h-36l-40-164L89 0H53L-1-190h32L70-26l43-164h34l41 164 42-164h31" id="ao"/><g id="x"><use transform="matrix(0.05,0,0,0.05,0,0)" xlink:href="#ao"/><use transform="matrix(0.05,0,0,0.05,12.950000000000001,0)" xlink:href="#M"/><use transform="matrix(0.05,0,0,0.05,16.900000000000002,0)" xlink:href="#I"/><use transform="matrix(0.05,0,0,0.05,21.900000000000002,0)" xlink:href="#J"/></g><path d="M155-56V0h-30v-56H8v-25l114-167h33v167h35v25h-35zm-30-156c-27 46-58 90-88 131h88v-131" id="ap"/><g id="y"><use transform="matrix(0.05,0,0,0.05,0,0)" xlink:href="#ap"/><use transform="matrix(0.05,0,0,0.05,10,0)" xlink:href="#ac"/></g><g id="z"><use transform="matrix(0.05,0,0,0.05,0,0)" xlink:href="#G"/><use transform="matrix(0.05,0,0,0.05,12,0)" xlink:href="#ae"/><use transform="matrix(0.05,0,0,0.05,21,0)" xlink:href="#Y"/><use transform="matrix(0.05,0,0,0.05,30,0)" xlink:href="#ae"/></g><path d="M101-234c-31-9-42 10-38 44h38v23H63V0H32v-167H5v-23h27c-7-52 17-82 69-68v24" id="aq"/><g id="A"><use transform="matrix(0.05,0,0,0.05,0,0)" xlink:href="#M"/><use transform="matrix(0.05,0,0,0.05,3.95,0)" xlink:href="#aq"/></g><g id="B"><use transform="matrix(0.05,0,0,0.05,0,0)" xlink:href="#M"/><use transform="matrix(0.05,0,0,0.05,3.95,0)" xlink:href="#ae"/></g><g id="C"><use transform="matrix(0.05,0,0,0.05,0,0)" xlink:href="#S"/><use transform="matrix(0.05,0,0,0.05,9,0)" xlink:href="#O"/><use transform="matrix(0.05,0,0,0.05,19,0)" xlink:href="#ag"/><use transform="matrix(0.05,0,0,0.05,22.95,0)" xlink:href="#M"/><use transform="matrix(0.05,0,0,0.05,26.899999999999995,0)" xlink:href="#Z"/></g><g id="D"><use transform="matrix(0.05,0,0,0.05,0,0)" xlink:href="#ae"/><use transform="matrix(0.05,0,0,0.05,9,0)" xlink:href="#I"/><use transform="matrix(0.05,0,0,0.05,14,0)" xlink:href="#K"/><use transform="matrix(0.05,0,0,0.05,24,0)" xlink:href="#L"/><use transform="matrix(0.05,0,0,0.05,29.950000000000003,0)" xlink:href="#R"/><use transform="matrix(0.05,0,0,0.05,39.95,0)" xlink:href="#ae"/></g><g id="E"><use transform="matrix(0.05,0,0,0.05,0,0)" xlink:href="#T"/><use transform="matrix(0.05,0,0,0.05,10.950000000000001,0)" xlink:href="#U"/><use transform="matrix(0.05,0,0,0.05,23.900000000000002,0)" xlink:href="#V"/><use transform="matrix(0.05,0,0,0.05,36.85,0)" xlink:href="#ae"/></g><g id="F"><use transform="matrix(0.05,0,0,0.05,0,0)" xlink:href="#M"/><use transform="matrix(0.05,0,0,0.05,3.95,0)" xlink:href="#P"/><use transform="matrix(0.05,0,0,0.05,13.949999999999998,0)" xlink:href="#S"/><use transform="matrix(0.05,0,0,0.05,22.95,0)" xlink:href="#O"/><use transform="matrix(0.05,0,0,0.05,32.95,0)" xlink:href="#ag"/><use transform="matrix(0.05,0,0,0.05,36.900000000000006,0)" xlink:href="#M"/><use transform="matrix(0.05,0,0,0.05,40.85000000000001,0)" xlink:href="#Z"/><use transform="matrix(0.05,0,0,0.05,50.85000000000001,0)" xlink:href="#O"/><use transform="matrix(0.05,0,0,0.05,60.85,0)" xlink:href="#I"/><use transform="matrix(0.05,0,0,0.05,65.85000000000001,0)" xlink:href="#R"/><use transform="matrix(0.05,0,0,0.05,75.85000000000001,0)" xlink:href="#ae"/></g></defs></g></svg>